<svg version="1.1" id="designs" xmlns="http://www.w3.org/2000/svg" xmlns:xlink="http://www.w3.org/1999/xlink" x="0px" y="0px"
	 width="32px" height="32px" viewBox="0 0 32 32" style="enable-background:new 0 0 32 32;" xml:space="preserve">
<style type="text/css">
	.sketchy_een{fill:#111918;}
</style>
<path class="sketchy_een" d="M29.985,20.082c-0.018,0.296-0.052,0.59-0.094,0.884c-0.031,0.206-0.063,0.39-0.127,0.555
	c-0.198,0.497-0.436,0.969-0.643,1.365c-0.167,0.32-0.372,0.695-0.624,1.052c-0.248,0.351-0.488,0.691-0.8,0.937
	c-0.192,0.148-0.391,0.303-0.622,0.418c-0.22,0.111-0.451,0.205-0.685,0.291c-0.403,0.147-0.815,0.262-1.229,0.377
	c-0.468,0.125-0.935,0.215-1.428,0.273c-0.416,0.049-0.775,0.091-1.133,0.091l-0.132-0.002c-0.291-0.008-0.543-0.039-0.768-0.095
	c-0.118-0.03-0.233-0.066-0.349-0.103l-0.201-0.062c-1.048-0.307-1.872-0.66-2.62-1.496c-0.637-0.711-1.074-1.582-1.344-2.494
	l-0.019-0.065l-0.252-0.024c-0.196-0.018-0.391-0.036-0.586-0.063c-0.233-0.027-0.465-0.038-0.697-0.038
	c-0.582,0-1.17,0.071-1.689,0.134l-0.06,0.007l-0.022,0.057c-0.251,0.669-0.605,1.287-1.051,1.837
	c-0.14,0.174-0.26,0.324-0.398,0.438c-0.218,0.18-0.441,0.35-0.676,0.505c-0.173,0.113-0.351,0.22-0.53,0.328L11.028,25.3
	c-0.137,0.085-0.274,0.171-0.42,0.238c-0.169,0.078-0.61,0.27-0.61,0.27c-0.233,0.102-0.474,0.207-0.717,0.266
	c-0.376,0.089-0.771,0.135-1.172,0.135l-0.145-0.002c-0.474-0.011-0.914-0.074-1.346-0.192c-0.283-0.078-0.54-0.176-0.786-0.297
	c-0.109-0.055-0.211-0.121-0.314-0.188l-0.353-0.218c-0.137-0.082-0.274-0.164-0.405-0.255c-0.264-0.185-0.496-0.39-0.729-0.646
	c-0.413-0.452-0.739-0.868-0.999-1.271c-0.285-0.445-0.53-0.949-0.708-1.458c-0.208-0.6-0.304-1.092-0.303-1.547
	c0-0.176-0.005-0.351-0.01-0.527c-0.008-0.265-0.015-0.53-0.005-0.793c0.012-0.335,0.036-0.669,0.06-1.003l0.028-0.405
	c0.038-0.607,0.094-1.136,0.171-1.617l0.021-0.131c0.068-0.434,0.139-0.882,0.264-1.307c0.263-0.893,0.582-1.794,0.975-2.757
	c0.215-0.523,0.445-0.984,0.703-1.411c0.232-0.384,0.505-0.828,0.808-1.238c0.269-0.363,0.488-0.658,0.775-0.901
	C6.35,7.577,6.888,7.104,7.483,6.707c0.519-0.347,1.256-0.752,1.88-0.842c0.259-0.037,0.431-0.062,0.603-0.062
	c0.064,0,0.129,0.003,0.194,0.012c0.234,0.027,0.375,0.043,0.514,0.078c0.193,0.051,0.377,0.13,0.559,0.209
	c0,0,0.327,0.123,0.403,0.156c0.232,0.097,0.504,0.22,0.768,0.394c0.24,0.158,0.464,0.341,0.682,0.531l0.807,0.045
	c0.502,0.015,1.004,0.031,1.505,0.031c0.316,0,0.632-0.006,0.949-0.022l0.273-0.015c0.285-0.016,0.567-0.031,0.853-0.031
	l1.221,0.033l0.029-0.055c0.041-0.079,0.061-0.118,0.087-0.154c0.096-0.137,0.207-0.277,0.329-0.393
	c0.192-0.186,0.406-0.352,0.62-0.481c0.352-0.213,0.721-0.345,1.129-0.4c0.285-0.04,0.578-0.067,0.868-0.067
	c0.482,0,0.897,0.074,1.267,0.225c0.586,0.24,1.08,0.481,1.512,0.74c0.481,0.291,0.983,0.613,1.378,1.054
	c0.227,0.252,0.426,0.532,0.624,0.81l0.223,0.309c0.26,0.354,0.48,0.719,0.68,1.06c0.228,0.397,0.446,0.796,0.653,1.206
	c0.194,0.385,0.414,0.834,0.57,1.296c0.141,0.417,0.274,0.814,0.357,1.212l0.097,0.486c0.055,0.274,0.11,0.549,0.171,0.823
	l0.085,0.379c0.158,0.713,0.318,1.425,0.436,2.146C29.974,18.406,30.031,19.277,29.985,20.082z M28.228,18.234
	c-0.106-0.695-0.262-1.385-0.411-2.052c-0.065-0.286-0.129-0.572-0.19-0.858l-0.106-0.513c-0.17-0.831-0.345-1.69-0.661-2.496
	c-0.238-0.541-0.525-1.09-0.904-1.733c-0.316-0.539-0.688-1.031-1.049-1.507c-0.173-0.208-0.367-0.402-0.58-0.579
	c-0.55-0.4-1.148-0.746-1.782-1.03c-0.146-0.055-0.285-0.099-0.431-0.13c-0.139-0.01-0.262-0.014-0.385-0.014
	c-0.163,0-0.328,0.008-0.493,0.024c-0.146,0.024-0.284,0.053-0.42,0.095c-0.137,0.072-0.252,0.146-0.363,0.224
	c-0.091,0.081-0.164,0.156-0.236,0.238l-0.056,0.094c-0.09,0.229-0.188,0.398-0.391,0.516c-0.116,0.067-0.255,0.103-0.4,0.103
	c-0.058,0-0.115-0.005-0.172-0.016c-0.254-0.002-0.465-0.005-0.677-0.005c-0.618,0-1.156,0.028-1.642,0.084
	c-0.284,0.038-0.567,0.075-0.852,0.097c-0.245,0.019-0.491,0.025-0.738,0.031c0,0-0.572,0.009-0.793,0.009
	c-0.405,0-0.81-0.005-1.214-0.011c-0.213,0.122-0.394,0.177-0.58,0.177c-0.237,0-0.461-0.09-0.63-0.254
	c-0.164-0.157-0.331-0.308-0.504-0.456c-0.177-0.132-0.352-0.253-0.544-0.351c-0.311-0.127-0.61-0.243-0.93-0.309
	C10.008,7.604,9.939,7.602,9.87,7.602L9.761,7.604c-0.094,0.022-0.166,0.042-0.24,0.067c-0.22,0.101-0.428,0.204-0.635,0.306
	l-0.162,0.08C8.455,8.185,8.214,8.306,7.991,8.47C7.625,8.756,7.26,9.037,6.894,9.316C6.706,9.48,6.555,9.664,6.406,9.853
	c-0.327,0.439-0.617,0.828-0.858,1.241c-0.143,0.245-0.282,0.488-0.409,0.742c-0.08,0.157-0.148,0.323-0.217,0.488
	c-0.333,0.839-0.554,1.479-0.726,2.09c-0.172,0.612-0.312,1.277-0.427,2.033c-0.127,1.255-0.142,2.509-0.046,3.732
	C3.78,20.489,3.871,20.802,4,21.147c0.227,0.487,0.473,0.91,0.754,1.298c0.259,0.312,0.568,0.665,0.921,0.967
	c0.117,0.079,0.643,0.415,0.643,0.415c0.165,0.107,0.327,0.209,0.5,0.297c0.261,0.094,0.53,0.166,0.813,0.216
	c0.165,0.013,0.32,0.021,0.475,0.021c0.102,0,0.203-0.003,0.304-0.011c0.333-0.063,0.666-0.167,1.059-0.327
	c0.535-0.24,1.041-0.529,1.508-0.86c0.226-0.189,0.433-0.401,0.639-0.654c0.247-0.345,0.45-0.692,0.608-1.035
	c0.055-0.144,0.103-0.282,0.148-0.422c0.122-0.384,0.461-0.643,0.842-0.643c0.076,0,0.153,0.011,0.229,0.031l0.178,0.075
	c0.577-0.059,1.174-0.12,1.768-0.125l0.322-0.003c0.156,0,0.312,0.004,0.467,0.023c0.191,0.023,0.382,0.052,0.572,0.08l0.112,0.017
	c0.23,0.025,0.457,0.038,0.684,0.048c0.21,0.008,0.407,0.1,0.553,0.26c0.212,0.119,0.338,0.274,0.381,0.458
	c0.176,0.767,0.603,1.294,1.046,1.929l0.202,0.287c0.142,0.17,0.291,0.321,0.452,0.459c0.11,0.078,0.215,0.144,0.327,0.2
	c0.243,0.091,0.484,0.16,0.726,0.212l0.345,0.079c0.184,0.044,0.368,0.087,0.552,0.121c0.091,0.007,0.17,0.01,0.25,0.01
	c0.221,0,0.443-0.02,0.665-0.041c0.354-0.03,0.659-0.06,0.964-0.096c0.321-0.053,0.63-0.136,0.937-0.219l0.181-0.049
	c0.313-0.083,0.624-0.172,0.926-0.288c0.218-0.106,0.418-0.225,0.607-0.359c0.127-0.11,0.23-0.225,0.331-0.346
	c0.392-0.531,0.743-1.142,1.073-1.873c0.099-0.251,0.167-0.486,0.21-0.723C28.365,19.715,28.297,18.873,28.228,18.234z
	 M20.707,17.286c0.007,0.462-0.379,0.858-0.841,0.865s-0.858-0.378-0.865-0.84c-0.007-0.462,0.378-0.858,0.84-0.864
	C20.303,16.44,20.7,16.825,20.707,17.286z M17.919,12.977c-0.428,0-0.79,0.361-0.79,0.789s0.362,0.789,0.79,0.789
	s0.789-0.361,0.789-0.789S18.347,12.977,17.919,12.977z M12.048,14.296c-0.08-0.014-0.158-0.027-0.289-0.027
	c-0.016,0-0.033,0-0.051,0c-0.055,0.005-0.108,0.01-0.179,0.01c-0.002,0-0.388,0.001-0.388,0.001
	c-0.095,0.008-0.191,0.011-0.356,0.016l-0.221,0.022l0.004-0.758c-0.003-0.4-0.328-0.726-0.725-0.726
	c-0.192,0-0.382,0.082-0.522,0.224c-0.135,0.138-0.207,0.315-0.203,0.499l0.013,0.677L9.11,14.338l-0.832-0.001
	c-0.463,0.003-0.84,0.38-0.84,0.84c0,0.215,0.089,0.429,0.246,0.589c0.159,0.162,0.367,0.252,0.592,0.252
	c0.232-0.004,0.937-0.032,0.937-0.032l0.048,0.345c0.013,0.123,0.022,0.246,0.025,0.37c0.008,0.416,0.345,0.753,0.751,0.753
	c0.206,0,0.418-0.096,0.568-0.258c0.132-0.142,0.198-0.314,0.186-0.487l-0.009-0.134c-0.011-0.17-0.053-0.628-0.053-0.628
	l0.128-0.006l0.627-0.006c0.061,0,0.123,0.001,0.189,0.007c0.071,0.008,0.14,0.014,0.206,0.014c0.155,0,0.278-0.032,0.402-0.105
	c0.19-0.111,0.332-0.296,0.391-0.507c0.06-0.221,0.029-0.459-0.086-0.655C12.488,14.522,12.286,14.334,12.048,14.296z
	 M23.651,14.818c-0.448,0-0.827,0.379-0.827,0.827c0,0.448,0.378,0.827,0.827,0.827c0.448,0,0.827-0.379,0.827-0.827
	C24.478,15.196,24.099,14.818,23.651,14.818z M21.663,11.206c-0.453,0-0.836,0.382-0.836,0.836s0.382,0.836,0.836,0.836
	s0.837-0.382,0.837-0.836S22.116,11.206,21.663,11.206z"/>
</svg>