<?xml version="1.0" encoding="iso-8859-1"?>
<!-- Generator: Adobe Illustrator 19.0.0, SVG Export Plug-In . SVG Version: 6.00 Build 0)  -->
<svg version="1.1" id="Capa_1" xmlns="http://www.w3.org/2000/svg" xmlns:xlink="http://www.w3.org/1999/xlink" x="0px" y="0px"
	 viewBox="0 0 491.108 491.108" style="enable-background:new 0 0 491.108 491.108;" xml:space="preserve">
<g>
	<path d="M303.737,191.783L245.551,6.62l-58.175,185.163H0l151.595,113.894L93.517,490.554l152.033-114.268l152.033,114.268
		L339.51,305.676l151.599-113.894H303.737z M368.648,449.622L245.551,357.1l-123.097,92.521l47.025-149.697L45.95,207.119h152.681
		l46.92-149.337l46.923,149.337h152.685l-123.532,92.806L368.648,449.622z"/>
	<path d="M420.207,66.985L399.328,0.554L378.45,66.985h-66.671l53.94,40.528l-20.773,66.124l54.382-40.873l54.375,40.873
		l-20.773-66.124l53.94-40.528H420.207z M424.767,132.705l-25.439-19.126l-25.446,19.126l9.72-30.943l-25.873-19.44h31.984
		l9.615-30.606l9.615,30.606h31.976l-25.873,19.44L424.767,132.705z"/>
	<path d="M37.402,173.638l54.375-40.873l54.378,40.873l-20.773-66.124l53.944-40.528h-66.674L91.776,0.554L70.906,66.985H4.231
		l53.944,40.528L37.402,173.638z M50.181,82.322h31.98l9.615-30.606l9.619,30.606h31.98l-25.877,19.44l9.72,30.943l-25.442-19.126
		l-25.439,19.126l9.72-30.943L50.181,82.322z"/>
</g>
<g>
</g>
<g>
</g>
<g>
</g>
<g>
</g>
<g>
</g>
<g>
</g>
<g>
</g>
<g>
</g>
<g>
</g>
<g>
</g>
<g>
</g>
<g>
</g>
<g>
</g>
<g>
</g>
<g>
</g>
</svg>
